# Modelo Low-Poly: Parede com Vao para Porta (10x10, Vao de 4x7)
o Parede_Vao
v -5.000000 0.000000 0.000000
v -2.000000 0.000000 0.000000
v -2.000000 10.000000 0.000000
v -5.000000 10.000000 0.000000
v 2.000000 0.000000 0.000000
v 5.000000 0.000000 0.000000
v 5.000000 10.000000 0.000000
v 2.000000 10.000000 0.000000
v -2.000000 7.000000 0.000000
v 2.000000 7.000000 0.000000
vt 0.000000 0.000000
vt 0.300000 0.000000
vt 0.300000 1.000000
vt 0.000000 1.000000
vt 0.700000 0.000000
vt 1.000000 0.000000
vt 1.000000 1.000000
vt 0.700000 1.000000
vt 0.300000 0.700000
vt 0.700000 0.700000
vn 0.0000 0.0000 1.0000
f 1/1/1 2/2/1 3/3/1 4/4/1
f 5/5/1 6/6/1 7/7/1 8/8/1
f 9/9/1 10/10/1 8/8/1 3/3/1
